<?xml version="1.0" standalone="no"?>
<!DOCTYPE svg PUBLIC "-//W3C//DTD SVG 20010904//EN"
 "http://www.w3.org/TR/2001/REC-SVG-20010904/DTD/svg10.dtd">
<svg version="1.0" xmlns="http://www.w3.org/2000/svg"
 width="3264.000000pt" height="3264.000000pt" viewBox="0 0 3264.000000 3264.000000"
 preserveAspectRatio="xMidYMid meet">
<metadata>
Created by potrace 1.16, written by Peter Selinger 2001-2019
</metadata>
<g transform="translate(0.000000,3264.000000) scale(0.100000,-0.100000)"
fill="#000000" stroke="none">
<path d="M10455 22113 c-637 -42 -1205 -180 -1727 -419 -931 -425 -1765 -1270
-2132 -2158 -265 -641 -317 -1270 -155 -1891 87 -336 247 -607 506 -855 379
-364 909 -601 1523 -681 124 -17 469 -16 590 0 481 65 867 238 1145 516 252
250 389 551 425 930 39 423 -234 857 -673 1070 -249 120 -442 152 -634 105
-169 -43 -291 -115 -407 -242 l-67 -73 158 -7 c254 -10 424 -55 568 -149 129
-84 201 -173 247 -303 25 -73 28 -94 28 -216 0 -162 -15 -233 -72 -350 -34
-69 -60 -103 -138 -181 -186 -188 -410 -280 -717 -296 l-123 -6 0 55 0 56 53
12 c358 85 635 297 693 532 15 58 15 70 1 125 -48 184 -226 342 -452 399 -84
21 -231 23 -333 5 l-72 -13 31 -36 c18 -20 44 -61 58 -92 24 -50 26 -66 26
-185 0 -130 0 -130 -38 -210 -55 -116 -166 -222 -303 -292 -140 -71 -221 -88
-414 -88 -98 0 -175 5 -210 14 -140 35 -295 135 -433 279 -117 124 -188 247
-237 412 -18 62 -23 108 -27 262 -4 119 -1 218 6 270 36 249 149 524 325 788
126 187 241 326 420 505 444 443 1002 775 1536 911 182 47 294 63 490 71 263
9 522 -27 683 -96 56 -24 73 -27 37 -6 -54 31 -234 96 -332 120 -220 54 -427
66 -650 40 -464 -54 -948 -230 -1430 -520 -130 -79 -144 -85 -194 -85 l-54 0
0 54 c0 51 3 58 64 134 640 791 1601 1192 2716 1133 589 -32 1104 -204 1608
-538 181 -120 318 -229 416 -334 469 -498 726 -1319 726 -2319 0 -764 -162
-1526 -444 -2088 -31 -62 -55 -112 -52 -112 16 0 178 286 239 425 98 221 261
685 326 925 247 925 236 1708 -35 2457 -78 216 -197 455 -320 646 -59 90 -64
102 -64 152 l0 55 55 0 c52 0 56 -2 124 -63 202 -178 411 -481 602 -869 68
-139 68 -130 -3 62 -254 688 -748 1302 -1382 1718 -346 227 -742 383 -1196
471 -273 53 -661 80 -905 64z"/>
<path d="M7614 21549 c-586 -350 -1064 -798 -1373 -1287 -221 -349 -357 -704
-418 -1092 -25 -162 -25 -500 0 -663 11 -65 27 -150 36 -190 l17 -72 7 240
c10 401 55 661 174 1015 256 761 841 1509 1608 2055 181 129 174 128 -51 -6z"/>
<path d="M10250 21169 c-296 -24 -564 -85 -829 -190 -45 -17 -80 -34 -78 -36
3 -2 46 6 96 17 458 102 994 104 1335 5 376 -109 712 -332 995 -662 227 -264
355 -510 445 -854 65 -250 81 -399 81 -769 -1 -351 -15 -503 -71 -775 -95
-463 -284 -937 -518 -1301 l-76 -119 95 99 c371 383 636 951 759 1622 39 211
76 565 76 720 l0 64 55 0 54 0 10 -37 c40 -150 82 -380 103 -558 17 -147 17
-657 0 -795 -84 -682 -377 -1277 -869 -1766 -334 -333 -678 -572 -1158 -805
-661 -320 -1402 -510 -2230 -569 -183 -13 -781 -13 -960 0 -861 64 -1522 253
-2195 630 -51 29 -53 29 -25 5 56 -48 229 -162 365 -240 854 -493 1966 -683
3125 -534 1508 194 2892 915 3671 1916 404 517 634 1062 720 1708 26 195 24
539 -5 755 -52 391 -171 837 -286 1073 -281 579 -905 1054 -1678 1277 -215 62
-439 101 -686 120 -149 11 -169 11 -321 -1z"/>
<path d="M13915 20735 c360 -604 594 -1412 677 -2335 17 -191 17 -917 0 -1100
-60 -640 -174 -1118 -377 -1574 -224 -506 -500 -949 -855 -1376 -142 -171
-534 -561 -710 -707 -600 -497 -1283 -887 -2063 -1178 -26 -10 -46 -20 -44
-22 7 -6 355 117 540 191 313 126 664 299 932 459 239 143 583 381 745 516
523 435 920 873 1242 1371 235 361 447 775 561 1095 126 351 208 722 253 1150
22 203 25 801 6 1010 -89 956 -391 1829 -846 2448 -116 158 -132 172 -61 52z"/>
<path d="M9665 20314 c-427 -64 -828 -223 -1175 -467 -241 -170 -445 -382
-670 -696 -246 -345 -400 -710 -400 -949 0 -100 29 -213 77 -305 96 -183 399
-409 547 -409 133 1 308 127 382 277 46 94 52 155 22 219 l-24 49 -24 -37
c-38 -55 -90 -76 -191 -76 -61 0 -96 6 -126 19 -91 42 -169 161 -199 304 -25
115 -14 403 19 522 46 163 98 282 195 440 275 452 714 813 1170 961 206 67
297 79 572 78 212 0 258 -3 340 -21 245 -55 442 -159 619 -327 67 -64 78 -71
51 -36 -123 161 -314 300 -519 377 -152 57 -254 75 -451 78 -102 2 -198 1
-215 -1z"/>
<path d="M15660 18679 l0 -1460 518 5 c485 4 604 10 727 35 121 26 237 56 270
70 11 5 36 15 55 22 67 24 239 116 269 143 10 9 21 16 24 16 8 0 41 28 130
110 110 101 223 272 288 435 85 215 128 510 109 755 -18 226 -61 399 -143 580
-51 111 -157 259 -244 340 -93 87 -128 117 -154 130 -13 7 -26 16 -29 19 -20
24 -224 122 -320 154 -275 91 -439 107 -1062 107 l-438 0 0 -1461z m980 931
c131 -11 199 -24 285 -53 247 -82 407 -245 483 -488 41 -130 52 -214 52 -396
0 -331 -75 -562 -233 -715 -32 -31 -141 -104 -187 -125 -136 -62 -329 -93
-587 -93 -126 0 -183 4 -191 12 -9 9 -12 229 -12 930 0 863 1 918 18 927 22
13 224 14 372 1z"/>
<path d="M18737 20133 c-4 -3 -7 -660 -7 -1460 l0 -1453 305 0 305 0 -2 1458
-3 1457 -296 3 c-162 1 -298 -1 -302 -5z"/>
<path d="M22580 18680 l0 -1460 300 0 300 0 2 593 3 592 625 0 625 0 3 -592 2
-593 300 0 300 0 0 1460 0 1460 -297 -2 -298 -3 -5 -600 -5 -600 -619 -3
c-489 -2 -621 0 -628 10 -4 7 -8 280 -8 606 l0 592 -300 0 -300 0 0 -1460z"/>
<path d="M26635 20128 c-2 -7 -19 -58 -38 -113 -20 -55 -49 -143 -66 -195 -18
-52 -36 -103 -41 -112 -6 -10 -10 -25 -10 -33 0 -8 -4 -23 -10 -33 -5 -9 -25
-64 -44 -122 -51 -155 -156 -462 -165 -485 -5 -11 -15 -40 -22 -65 -7 -25 -16
-49 -21 -55 -4 -5 -8 -17 -8 -27 0 -10 -4 -26 -10 -36 -5 -9 -25 -64 -44 -122
-19 -58 -74 -217 -121 -355 -48 -137 -89 -259 -92 -270 -2 -11 -9 -29 -13 -40
-5 -11 -17 -42 -26 -70 -9 -27 -72 -213 -139 -412 l-123 -363 303 0 c280 0
303 1 308 18 3 9 31 100 62 202 58 188 71 232 84 285 l7 30 556 3 c437 2 558
-1 565 -10 10 -12 20 -46 65 -203 11 -38 24 -79 28 -90 4 -11 13 -40 20 -65
23 -83 33 -115 43 -142 l9 -28 305 0 c287 0 305 1 298 18 -13 33 -137 387
-142 407 -2 11 -9 29 -13 40 -5 11 -34 94 -64 185 -115 346 -177 526 -186 542
-6 10 -10 25 -10 33 0 8 -4 23 -10 33 -5 9 -30 78 -54 152 -91 274 -167 495
-176 512 -6 10 -10 25 -10 33 0 8 -4 23 -10 33 -9 17 -77 215 -186 542 -30 91
-59 173 -64 182 -6 10 -10 26 -10 36 0 10 -4 22 -8 28 -4 5 -14 27 -21 49 -7
22 -17 52 -23 68 l-10 27 -330 0 c-254 0 -330 -3 -333 -12z m417 -768 c10 -36
28 -94 39 -130 10 -36 24 -83 30 -105 6 -22 15 -51 19 -65 4 -14 13 -45 20
-70 7 -25 15 -52 18 -60 3 -8 14 -44 24 -80 11 -36 23 -78 28 -95 5 -16 13
-46 19 -65 5 -19 28 -98 51 -174 30 -101 40 -153 38 -190 l-3 -51 -362 -3
-363 -2 0 79 c0 44 4 90 9 103 5 13 14 43 21 68 24 85 30 105 48 165 11 33 25
80 32 105 7 25 16 56 20 70 4 14 13 45 20 70 7 25 16 56 21 70 8 24 80 266
101 340 5 19 12 48 15 63 5 27 6 28 70 25 l65 -3 20 -65z"/>
<path d="M9575 19426 c-237 -47 -454 -159 -626 -324 -44 -41 -79 -78 -79 -83
0 -4 33 3 73 17 39 14 128 37 197 51 117 25 142 27 385 28 233 0 272 -2 374
-23 125 -25 249 -67 320 -108 143 -83 363 -295 465 -449 114 -171 188 -360
223 -565 22 -131 21 -458 -1 -595 -32 -196 -107 -429 -191 -595 -39 -78 -11
-51 99 96 313 418 465 878 412 1244 -76 516 -456 996 -954 1208 -169 72 -311
103 -482 108 -97 2 -168 -1 -215 -10z"/>
<path d="M14082 18217 c-52 -657 -234 -1329 -519 -1917 -254 -527 -562 -959
-978 -1375 -651 -652 -1483 -1133 -2455 -1420 -405 -119 -895 -207 -1373 -247
-202 -17 -944 -17 -1142 0 -1079 92 -2047 393 -2896 900 -1400 837 -2339 2131
-2717 3747 -42 180 -42 178 -36 100 12 -149 89 -545 155 -795 179 -678 485
-1318 887 -1855 221 -295 578 -674 852 -905 1021 -860 2396 -1375 3900 -1461
228 -13 767 -7 970 11 1457 126 2743 623 3715 1436 575 480 1035 1077 1315
1704 187 418 293 798 357 1270 31 236 21 880 -16 947 -4 7 -12 -56 -19 -140z"/>
<path d="M11986 17866 c-14 -72 -98 -309 -156 -441 -250 -565 -680 -1042
-1246 -1383 -555 -334 -1127 -504 -1823 -543 -857 -48 -1759 143 -2563 541
-76 38 -138 67 -138 65 0 -8 249 -146 390 -216 539 -267 1021 -408 1695 -494
123 -16 417 -23 580 -14 527 28 1034 159 1476 379 846 424 1455 1068 1710
1810 39 114 91 308 86 323 -2 7 -7 -6 -11 -27z"/>
<path d="M23743 14483 c-10 -4 -13 -191 -13 -889 l0 -884 30 0 30 0 0 435 0
435 550 0 550 0 0 -435 0 -435 35 0 35 0 -2 888 -3 887 -30 0 -30 0 -3 -428
-2 -427 -548 2 -547 3 -5 425 c-5 447 -5 441 -47 423z"/>
<path d="M15560 14470 c0 -5 4 -19 9 -32 5 -13 14 -43 21 -68 7 -25 20 -70 30
-100 10 -30 22 -73 29 -95 6 -22 24 -83 40 -135 61 -199 88 -289 111 -370 7
-25 16 -54 20 -65 4 -11 13 -40 20 -65 7 -25 16 -56 20 -70 8 -27 50 -167 95
-315 14 -49 40 -133 56 -185 16 -52 34 -113 40 -135 6 -22 15 -50 20 -63 5
-13 9 -32 9 -43 0 -18 6 -20 51 -17 l51 3 32 100 c18 55 52 161 76 235 23 74
50 160 60 190 10 30 44 136 75 235 32 99 70 218 85 265 15 47 49 153 75 235
26 83 59 186 73 230 l27 80 63 3 c43 2 62 -1 62 -9 0 -12 77 -262 125 -404 12
-38 38 -117 55 -175 18 -58 45 -143 60 -190 15 -47 39 -121 53 -165 52 -166
131 -413 157 -495 15 -47 31 -97 34 -112 6 -26 10 -28 54 -28 l48 0 13 48 c7
26 21 72 31 102 9 30 23 75 30 100 7 25 16 56 21 70 4 14 22 72 39 130 49 162
108 358 140 459 11 35 20 72 20 82 0 10 4 20 9 23 5 3 11 18 14 33 3 16 14 57
25 93 11 36 36 120 56 188 20 67 42 142 50 165 7 23 23 76 36 117 12 41 26 85
31 98 14 37 11 64 -7 60 -10 -2 -24 -27 -36 -68 -11 -36 -32 -108 -49 -160
-40 -132 -44 -145 -69 -230 -12 -41 -30 -100 -40 -130 -28 -87 -86 -275 -120
-390 -43 -144 -90 -300 -100 -330 -5 -14 -19 -59 -31 -100 -12 -41 -31 -104
-43 -140 l-21 -65 -58 0 -59 0 -23 70 c-12 39 -37 117 -55 175 -46 149 -183
585 -220 700 -10 30 -38 120 -63 200 -149 475 -147 470 -178 470 -16 0 -29 -5
-29 -11 0 -10 -92 -309 -120 -389 -5 -14 -27 -86 -50 -160 -23 -74 -50 -160
-60 -190 -10 -30 -39 -122 -65 -205 -26 -82 -55 -175 -65 -205 -10 -30 -37
-116 -60 -190 -23 -74 -52 -164 -63 -200 l-22 -65 -58 0 -59 0 -23 70 c-12 39
-32 104 -44 145 -12 41 -26 86 -31 100 -4 14 -17 57 -28 95 -25 84 -90 300
-102 335 -4 14 -18 59 -30 100 -12 41 -25 86 -30 100 -4 14 -13 45 -20 70 -7
25 -20 70 -30 100 -16 50 -34 110 -106 345 -13 44 -29 97 -36 118 -8 25 -17
37 -30 37 -10 0 -18 -4 -18 -10z"/>
<path d="M18480 13595 l0 -885 545 0 c538 0 545 0 545 20 0 20 -7 20 -510 20
l-510 0 0 415 0 415 445 0 445 0 0 25 0 25 -445 0 -445 0 2 403 3 402 508 3
c499 2 507 3 507 22 0 20 -8 20 -545 20 l-545 0 0 -885z"/>
<path d="M20693 14463 c-5 -16 -27 -76 -85 -233 -11 -30 -24 -64 -28 -75 -4
-11 -18 -47 -30 -80 -12 -33 -26 -69 -30 -80 -4 -11 -18 -47 -30 -80 -12 -33
-32 -87 -45 -120 -12 -33 -33 -87 -45 -120 -12 -33 -26 -69 -30 -80 -4 -11
-17 -45 -28 -75 -11 -30 -34 -91 -51 -135 -16 -44 -60 -161 -96 -260 -36 -99
-70 -189 -74 -200 -5 -11 -14 -36 -21 -55 -7 -19 -16 -44 -20 -55 -17 -41 -40
-106 -40 -110 0 -3 4 -5 10 -5 10 0 25 32 58 120 99 264 132 356 132 366 0 7
7 15 16 18 9 3 231 6 494 6 370 0 480 -3 488 -12 6 -7 18 -33 27 -58 9 -25 21
-54 25 -65 12 -29 43 -114 90 -245 42 -115 54 -139 66 -127 6 6 -1 31 -26 92
-5 11 -38 101 -75 200 -36 99 -70 189 -75 200 -4 11 -13 36 -20 55 -7 19 -16
44 -20 55 -4 11 -17 45 -28 75 -11 30 -39 104 -62 164 -22 60 -57 153 -76 205
-19 53 -39 105 -44 116 -4 11 -18 47 -30 80 -12 33 -26 69 -30 80 -5 11 -21
54 -35 95 -25 70 -96 260 -115 305 -4 11 -11 28 -14 38 -4 13 -16 17 -51 17
-34 0 -47 -4 -52 -17z m118 -93 c7 -13 45 -115 161 -430 11 -30 24 -64 28 -75
4 -11 17 -45 28 -75 11 -30 50 -135 87 -232 60 -160 66 -183 63 -240 l-3 -63
-410 -3 c-225 -1 -421 0 -434 3 -23 6 -23 9 -18 78 2 40 14 95 26 122 11 28
50 131 86 230 77 210 104 282 115 310 13 32 46 120 97 263 l48 133 59 -3 c40
-2 62 -8 67 -18z"/>
<path d="M21850 14460 c0 -19 8 -20 328 -22 l327 -3 3 -862 2 -863 30 0 30 0
2 863 3 862 325 5 c280 4 325 7 325 20 0 13 -84 15 -687 18 -681 2 -688 2
-688 -18z"/>
<path d="M25627 14473 c-4 -3 -7 -402 -7 -885 l0 -878 545 0 c537 0 545 0 545
20 0 19 -8 20 -507 22 l-508 3 -3 412 -2 413 447 2 c440 3 448 3 448 23 0 20
-8 20 -448 23 l-447 2 2 403 3 402 508 3 c499 2 507 3 507 22 0 20 -7 20 -538
20 -296 0 -542 -3 -545 -7z"/>
<path d="M27297 14473 c-4 -3 -7 -402 -7 -885 l0 -878 35 0 35 0 0 405 0 405
325 0 325 0 24 -52 c13 -29 79 -181 146 -338 192 -446 179 -420 197 -420 20 0
20 -2 -48 148 -16 35 -29 65 -29 67 0 3 -13 34 -30 70 -16 36 -30 67 -30 70 0
2 -13 32 -29 67 -59 129 -81 179 -81 183 0 2 -13 34 -30 70 -38 83 -41 156 -8
179 12 9 28 16 36 16 23 0 116 65 165 115 74 76 127 207 127 311 0 55 -23 140
-57 211 -28 58 -127 157 -184 184 -148 70 -214 79 -580 79 -163 0 -299 -3
-302 -7z m698 -43 c126 -18 193 -47 260 -115 92 -92 105 -132 105 -323 0 -81
-5 -153 -11 -169 -45 -112 -88 -162 -176 -206 -95 -48 -136 -52 -483 -52
l-325 0 -3 425 c-1 234 0 431 3 438 6 15 522 17 630 2z"/>
</g>
</svg>
