<?xml version="1.0" encoding="UTF-8"?>
<svg version="1.1" xmlns="http://www.w3.org/2000/svg" width="736" height="736">
<path d="M0 0 C242.88 0 485.76 0 736 0 C736 242.88 736 485.76 736 736 C493.12 736 250.24 736 0 736 C0 493.12 0 250.24 0 0 Z " fill="#522EA8" transform="translate(0,0)"/>
<path d="M0 0 C1.0294725 0.00031723 1.0294725 0.00031723 2.07974243 0.00064087 C12.21302904 0.03184023 21.23093598 0.59955848 30.75 4.375 C31.79285156 4.73722656 32.83570313 5.09945313 33.91015625 5.47265625 C51.31167566 11.96247702 64.27630313 25.43095448 72.0625 42.0625 C75.41673353 50.19615641 75.75 56.14128126 75.75 65.375 C66.51 65.375 57.27 65.375 47.75 65.375 C47.1621875 62.219375 47.1621875 62.219375 46.5625 59 C44.41294386 49.08204794 40.6639955 40.0681432 32.75 33.375 C17.57058019 24.08147767 0.32215027 22.11566548 -16.9375 25.9375 C-26.16072216 28.19270793 -34.07310255 31.83549333 -39.75 39.75 C-45.03040656 48.75416147 -46.72215561 57.18914796 -44.1875 67.375 C-41.01427286 76.76367662 -35.16782672 82.16813536 -26.5546875 86.76953125 C-16.47846039 91.6647196 -6.34322241 94.98621309 4.40203857 98.1131897 C21.07535457 102.96663338 38.44874956 108.1823961 52.75 118.375 C53.58402344 118.96667969 54.41804687 119.55835938 55.27734375 120.16796875 C67.02700856 129.01997186 75.29586951 140.53912165 77.46484375 155.30078125 C79.01238615 171.98456025 76.56070595 187.84522316 65.8125 201.375 C57.20662801 210.57824272 46.67402008 216.59142467 34.75 220.375 C33.09242676 220.90432129 33.09242676 220.90432129 31.40136719 221.44433594 C22.6228867 224.02197082 14.63000576 224.95422029 5.49584961 224.78662109 C3.42056621 224.74969872 1.34706537 224.7456067 -0.72851562 224.74609375 C-8.11466235 224.70777378 -15.08570856 224.21832166 -22.25 222.375 C-22.94826904 222.20887207 -23.64653809 222.04274414 -24.3659668 221.87158203 C-41.17202591 217.74055072 -54.16276206 210.75437662 -66.25 198.375 C-66.93835938 197.70726562 -67.62671875 197.03953125 -68.3359375 196.3515625 C-78.68178562 185.64428737 -80.25 173.70893704 -80.25 159.375 C-71.01 159.375 -61.77 159.375 -52.25 159.375 C-51.858125 161.664375 -51.46625 163.95375 -51.0625 166.3125 C-49.0583533 176.73653432 -45.21243155 184.26872795 -36.25 190.375 C-19.28596369 200.33439769 -0.87684818 203.47670149 18.375 198.6875 C26.99184501 196.33328718 34.85146096 193.31445769 40.75 186.375 C41.45125 185.653125 42.1525 184.93125 42.875 184.1875 C47.81466212 176.77800682 48.75415248 168.08919678 47.75 159.375 C45.83562817 151.1516292 41.24015567 143.95617531 34.10839844 139.30419922 C23.97040756 133.35698042 12.90260038 129.8669843 1.75 126.375 C-56.57921703 107.95237007 -56.57921703 107.95237007 -70.3125 83.8125 C-76.41653446 71.37078383 -77.503967 56.15898806 -73.21875 42.88671875 C-66.61455502 25.76374549 -55.08203025 14.54426184 -38.5703125 6.84375 C-26.00819084 1.28685854 -13.67866397 -0.03891775 0 0 Z " fill="#FCFBFC" transform="translate(356.25,270.625)"/>
<path d="M0 0 C-0.33 0.99 -0.66 1.98 -1 3 C-2.65 3 -4.3 3 -6 3 C-6 2.67 -6 2.34 -6 2 C-10.29782361 0.94644791 -14.47619661 0.85033381 -18.875 0.875 C-19.89787109 0.86919922 -19.89787109 0.86919922 -20.94140625 0.86328125 C-27.31278508 0.87541721 -33.09261766 1.46826471 -39 4 C-39.66 4 -40.32 4 -41 4 C-41.33 4.66 -41.66 5.32 -42 6 C-42.7425 6.268125 -43.485 6.53625 -44.25 6.8125 C-47.21035931 7.8779949 -47.21035931 7.8779949 -49.5 10.625 C-52 13 -52 13 -54.8125 13.3125 C-55.534375 13.209375 -56.25625 13.10625 -57 13 C-51.39568682 4.33878872 -42.1195196 1.27051842 -32.53369141 -0.86987305 C-21.49217926 -3.0740419 -10.97222434 -2.25071268 0 0 Z " fill="#624C9F" transform="translate(374,296)"/>
<path d="M0 0 C1.11375 0.185625 1.11375 0.185625 2.25 0.375 C2.25 1.365 2.25 2.355 2.25 3.375 C1.59 3.375 0.93 3.375 0.25 3.375 C-0.08 4.695 -0.41 6.015 -0.75 7.375 C-1.74 7.375 -2.73 7.375 -3.75 7.375 C-0.46303767 8.17453138 0.96023192 8.47158936 4.25 7.375 C2.57534114 12.39897657 -2.21967589 14.02641838 -6.75 16.375 C-12.54148237 18.93844302 -17.44082849 19.71913663 -23.75 19.375 C-22.7909375 18.9109375 -22.7909375 18.9109375 -21.8125 18.4375 C-19.81389179 17.5404837 -19.81389179 17.5404837 -18.75 16.375 C-17.079375 16.1584375 -17.079375 16.1584375 -15.375 15.9375 C-11.66489453 15.62199783 -11.66489453 15.62199783 -8.75 13.375 C-6.76200182 12.67335358 -4.76301483 12.00127128 -2.75 11.375 C-4.07 10.715 -5.39 10.055 -6.75 9.375 C-7.08 10.035 -7.41 10.695 -7.75 11.375 C-7.16155993 6.37325939 -5.51571413 0.75214284 0 0 Z " fill="#532EA3" transform="translate(391.75,450.625)"/>
<path d="M0 0 C2 1 2 1 4 4 C5.10894442 8.02588382 5.11535694 11.89112019 5.09765625 16.05078125 C5.0962413 16.70958786 5.09482635 17.36839447 5.09336853 18.04716492 C5.087805 20.13565762 5.07525947 22.22404011 5.0625 24.3125 C5.05748028 25.73502449 5.0529182 27.15755066 5.04882812 28.58007812 C5.03784757 32.05342077 5.02060835 35.52669961 5 39 C3.68 39.66 2.36 40.32 1 41 C1 41.66 1 42.32 1 43 C0.34 43 -0.32 43 -1 43 C-0.7834375 42.2471875 -0.566875 41.494375 -0.34375 40.71875 C3.28572285 26.87298321 2.44135778 13.95061586 0 0 Z " fill="#543996" transform="translate(431,415)"/>
<path d="M0 0 C1.5 1.375 1.5 1.375 3 3 C5.10332891 3.71447643 5.10332891 3.71447643 7 4 C7 4.66 7 5.32 7 6 C8.65 6.33 10.3 6.66 12 7 C12.33 7.99 12.66 8.98 13 10 C14.051875 10.2475 15.10375 10.495 16.1875 10.75 C20.3557485 11.74284769 22.12286676 14.00559863 24.640625 17.34375 C26.08410816 19.26641362 26.08410816 19.26641362 29 21 C29.495 22.485 29.495 22.485 30 24 C29.01 24.495 29.01 24.495 28 25 C27.21625 23.989375 26.4325 22.97875 25.625 21.9375 C17.73793556 12.84546738 6.65482711 8.08946456 -4 3 C-4 2.34 -4 1.68 -4 1 C-2.1875 0.3125 -2.1875 0.3125 0 0 Z " fill="#543C93" transform="translate(394,377)"/>
<path d="M0 0 C2.97 0.495 2.97 0.495 6 1 C6.33 1.99 6.66 2.98 7 4 C7.7425 4.28875 8.485 4.5775 9.25 4.875 C12.7055128 6.28861887 14.55229193 8.21233247 17 11 C17.33 11.99 17.66 12.98 18 14 C20.01508358 14.73323796 20.01508358 14.73323796 22 15 C22.33 16.32 22.66 17.64 23 19 C23.66 19 24.32 19 25 19 C24.34 20.32 23.68 21.64 23 23 C22.64808594 22.50371094 22.29617188 22.00742187 21.93359375 21.49609375 C16.18348762 13.58406782 10.09964255 7.8054256 1.94140625 2.3828125 C1.30074219 1.92648437 0.66007812 1.47015625 0 1 C0 0.67 0 0.34 0 0 Z " fill="#543B8F" transform="translate(398,279)"/>
<path d="M0 0 C0.66 0 1.32 0 2 0 C2.45375 0.969375 2.9075 1.93875 3.375 2.9375 C4.65786221 6.07079582 4.65786221 6.07079582 7 7 C7.53625 8.0725 8.0725 9.145 8.625 10.25 C11.68477355 15.81011088 16.7304412 18.14891545 22.5 20.3125 C23.325 20.539375 24.15 20.76625 25 21 C23.33203125 22.1796875 23.33203125 22.1796875 21 23 C12.31979006 19.41093923 5.67080328 12.652367 1.0625 4.625 C0 2 0 2 0 0 Z " fill="#5C4391" transform="translate(306,443)"/>
<path d="M0 0 C2.94989427 1.47494714 3.38212094 3.66126205 4.75 6.625 C7.28863804 11.86484897 9.99241628 15.80157896 14 20 C13.01 20 12.02 20 11 20 C10.731875 19.360625 10.46375 18.72125 10.1875 18.0625 C9.11332248 15.66868314 9.11332248 15.66868314 6 15 C6 14.34 6 13.68 6 13 C5.38125 12.814375 4.7625 12.62875 4.125 12.4375 C0.90015259 10.25598557 0.76672901 7.70585687 0 4 C0 2.68 0 1.36 0 0 Z " fill="#5C4295" transform="translate(283,348)"/>
<path d="M0 0 C8.58 0 17.16 0 26 0 C26 0.33 26 0.66 26 1 C24.329375 1.2165625 24.329375 1.2165625 22.625 1.4375 C19.17857953 1.78372035 19.17857953 1.78372035 17 3 C14.48492965 3.14998126 12.01591534 3.23118942 9.5 3.25 C8.81035156 3.270625 8.12070312 3.29125 7.41015625 3.3125 C5.40625 3.328125 5.40625 3.328125 2 3 C1.34 2.01 0.68 1.02 0 0 Z " fill="#4F2E9A" transform="translate(406,337)"/>
<path d="M0 0 C0.66 0.33 1.32 0.66 2 1 C2 1.99 2 2.98 2 4 C1.34 4 0.68 4 0 4 C-0.0269501 6.93756119 -0.04681474 9.87487555 -0.0625 12.8125 C-0.07506836 14.06256836 -0.07506836 14.06256836 -0.08789062 15.33789062 C-0.09272461 16.54155273 -0.09272461 16.54155273 -0.09765625 17.76953125 C-0.10289307 18.50792236 -0.10812988 19.24631348 -0.11352539 20.00708008 C-0.07523213 22.21057409 -0.07523213 22.21057409 1 25 C1.66 25.33 2.32 25.66 3 26 C2.67 27.32 2.34 28.64 2 30 C-2.68760801 24.8862458 -3.39749915 17.99791002 -3.26953125 11.3203125 C-2.80760524 7.34373207 -1.4714063 3.70479086 0 0 Z " fill="#584192" transform="translate(313,315)"/>
<path d="M0 0 C8.39987883 2.21663469 14.92926985 5.79831884 20 13 C17 13 17 13 15.3125 11.625 C14 10 14 10 14 8 C12.35 8 10.7 8 9 8 C9 7.34 9 6.68 9 6 C7.68 5.67 6.36 5.34 5 5 C5 4.34 5 3.68 5 3 C3.35 3 1.7 3 0 3 C0 2.01 0 1.02 0 0 Z " fill="#543B92" transform="translate(375,297)"/>
<path d="M0 0 C-0.33 1.32 -0.66 2.64 -1 4 C-2.134375 4.268125 -3.26875 4.53625 -4.4375 4.8125 C-6.2009375 5.4003125 -6.2009375 5.4003125 -8 6 C-8.33 6.99 -8.66 7.98 -9 9 C-11.06640625 9.73046875 -11.06640625 9.73046875 -13.5625 10.1875 C-14.38878906 10.34605469 -15.21507812 10.50460937 -16.06640625 10.66796875 C-16.70449219 10.77753906 -17.34257812 10.88710938 -18 11 C-13.90793979 6.20241216 -6.54758015 0 0 0 Z " fill="#EEE7F8" transform="translate(320,277)"/>
<path d="M0 0 C3.25 0.1875 3.25 0.1875 7 1 C8.37868281 2.62935241 9.71274093 4.29749607 11 6 C14.12133744 7.34772903 14.12133744 7.34772903 17 8 C15.453125 9.2109375 15.453125 9.2109375 13 10 C10.39484836 8.99212459 8.17152464 7.96372907 5.75 6.625 C5.1003125 6.28210938 4.450625 5.93921875 3.78125 5.5859375 C2.17989869 4.73816328 0.58888556 3.87091321 -1 3 C-0.67 2.01 -0.34 1.02 0 0 Z " fill="#5A4295" transform="translate(327,353)"/>
<path d="M0 0 C1.08667969 0.28746094 2.17335938 0.57492187 3.29296875 0.87109375 C4.12441406 1.09925781 4.95585937 1.32742188 5.8125 1.5625 C5.1525 2.2225 4.4925 2.8825 3.8125 3.5625 C0.6875 3.1875 0.6875 3.1875 -2.1875 2.5625 C-2.1875 3.2225 -2.1875 3.8825 -2.1875 4.5625 C-4.1675 4.8925 -6.1475 5.2225 -8.1875 5.5625 C-7.8575 4.5725 -7.5275 3.5825 -7.1875 2.5625 C-7.8475 2.2325 -8.5075 1.9025 -9.1875 1.5625 C-9.1875 0.9025 -9.1875 0.2425 -9.1875 -0.4375 C-5.46983332 -1.67672223 -3.74860463 -1.00768942 0 0 Z " fill="#5531AC" transform="translate(324.1875,489.4375)"/>
<path d="M0 0 C-1 2 -1 2 -3.25 2.8125 C-6.21035931 3.8779949 -6.21035931 3.8779949 -8.5 6.625 C-11 9 -11 9 -13.8125 9.3125 C-14.534375 9.209375 -15.25625 9.10625 -16 9 C-12.43315259 3.79834753 -6.71320314 -2.42754221 0 0 Z " fill="#573D97" transform="translate(333,300)"/>
<path d="M0 0 C0.99 0.33 1.98 0.66 3 1 C2.79503906 1.65742188 2.59007812 2.31484375 2.37890625 2.9921875 C-0.2564897 12.2980354 -0.69049611 21.39470683 -1 31 C-3.00173429 27.69996082 -3.15819723 25.52971337 -2.79296875 21.71875 C-2.6547168 20.20861328 -2.6547168 20.20861328 -2.51367188 18.66796875 C-2.40603516 17.62253906 -2.29839844 16.57710938 -2.1875 15.5 C-2.09146484 14.45457031 -1.99542969 13.40914063 -1.89648438 12.33203125 C-1.09888416 3.97061154 -1.09888416 3.97061154 0 0 Z " fill="#4D338D" transform="translate(282,309)"/>
<path d="M0 0 C0 0.99 0 1.98 0 3 C-13.44874715 8.74031891 -13.44874715 8.74031891 -21 8 C-20.360625 7.690625 -19.72125 7.38125 -19.0625 7.0625 C-17.06389179 6.1654837 -17.06389179 6.1654837 -16 5 C-14.329375 4.7834375 -14.329375 4.7834375 -12.625 4.5625 C-8.91489453 4.24699783 -8.91489453 4.24699783 -6 2 C-4.01200182 1.29835358 -2.01301483 0.62627128 0 0 Z " fill="#4F3693" transform="translate(389,462)"/>
<path d="M0 0 C2.62386487 3.06117568 3 3.73173127 3 8 C2.401875 8.061875 1.80375 8.12375 1.1875 8.1875 C-1.87143458 9.3236757 -2.55041099 11.17330142 -4 14 C-5.32 13.67 -6.64 13.34 -8 13 C-7.59007812 12.48050781 -7.18015625 11.96101563 -6.7578125 11.42578125 C-3.92363424 7.7576223 -1.40171967 4.48550294 0 0 Z " fill="#5B409F" transform="translate(429,458)"/>
<path d="M0 0 C7.42857143 -0.28571429 7.42857143 -0.28571429 11 2 C11 2.66 11 3.32 11 4 C13.97 4.495 13.97 4.495 17 5 C17 5.33 17 5.66 17 6 C10.69732561 5.63223832 5.66748157 4.83374078 0 2 C0 1.34 0 0.68 0 0 Z " fill="#5A3F98" transform="translate(367,369)"/>
<path d="M0 0 C3.45195767 1.4258086 5.1014256 3.09746334 7.25 6.125 C8.03117187 7.21167969 8.03117187 7.21167969 8.828125 8.3203125 C9.40820312 9.15175781 9.40820312 9.15175781 10 10 C9.34 10.66 8.68 11.32 8 12 C4.125 9.375 4.125 9.375 3 6 C2.484375 5.505 1.96875 5.01 1.4375 4.5 C0 3 0 3 0 0 Z " fill="#543795" transform="translate(392,412)"/>
<path d="M0 0 C6.24026726 5.56275253 7.43690029 13.98731833 7.921875 21.9453125 C7.94765625 22.62335938 7.9734375 23.30140625 8 24 C7.67 24 7.34 24 7 24 C5.20723553 19.03542148 3.98476093 13.97841515 2.73046875 8.859375 C1.96177524 5.85037155 1.05485618 2.92114019 0 0 Z " fill="#6A53A0" transform="translate(396,312)"/>
<path d="M0 0 C0 0.66 0 1.32 0 2 C-0.66 2 -1.32 2 -2 2 C-2 2.66 -2 3.32 -2 4 C-7.71271093 6.0662997 -12.03654233 6.0006709 -18 5 C-18 4.67 -18 4.34 -18 4 C-15.37569876 3.3304744 -12.75063343 2.66426282 -10.125 2 C-9.00544922 1.71382813 -9.00544922 1.71382813 -7.86328125 1.421875 C-2.2265625 0 -2.2265625 0 0 0 Z " fill="#62499B" transform="translate(396,489)"/>
<path d="M0 0 C0.66 0 1.32 0 2 0 C1.43790555 3.43913052 0.47112228 4.80201056 -2.25 6.9375 C-5.37536985 9.47001618 -8.19933161 12.11446287 -11 15 C-10.75 12.125 -10.75 12.125 -10 9 C-8.1875 7.9375 -8.1875 7.9375 -6 7 C-4.61767557 5.37373596 -3.28062485 3.7074998 -2 2 C-1.34 1.34 -0.68 0.68 0 0 Z " fill="#52388E" transform="translate(301,284)"/>
<path d="M0 0 C0.33 0.99 0.66 1.98 1 3 C1.66 3 2.32 3 3 3 C3 4.98 3 6.96 3 9 C1.02 9.99 1.02 9.99 -1 11 C-1 11.66 -1 12.32 -1 13 C-1.66 13 -2.32 13 -3 13 C-2.01 8.71 -1.02 4.42 0 0 Z " fill="#5D419E" transform="translate(433,445)"/>
<path d="M0 0 C0.99 0 1.98 0 3 0 C3 0.99 3 1.98 3 3 C1 4.6875 1 4.6875 -1 6 C-6.75 1.25 -6.75 1.25 -9 -1 C-5.82097996 -2.58951002 -3.29437316 -0.98253235 0 0 Z " fill="#F2EDF8" transform="translate(397,409)"/>
<path d="M0 0 C3.3 1.65 6.6 3.3 10 5 C9.34 5.66 8.68 6.32 8 7 C7.01 6.67 6.02 6.34 5 6 C5 5.34 5 4.68 5 4 C4.360625 3.896875 3.72125 3.79375 3.0625 3.6875 C2.381875 3.460625 1.70125 3.23375 1 3 C0.67 2.01 0.34 1.02 0 0 Z M1 6 C2.32 6 3.64 6 5 6 C5 7.32 5 8.64 5 10 C3.68 10 2.36 10 1 10 C1 8.68 1 7.36 1 6 Z " fill="#583B9B" transform="translate(303,480)"/>
<path d="M0 0 C6.6772895 0.60702632 12.70127996 2.77631394 19 5 C19 5.33 19 5.66 19 6 C12.91766294 5.32418477 6.98685848 4.26361972 1 3 C0.67 2.01 0.34 1.02 0 0 Z " fill="#573F94" transform="translate(357,397)"/>
<path d="M0 0 C3.33511388 2.9901021 5.21521119 5.89498574 7 10 C7 10.66 7 11.32 7 12 C6.01 12 5.02 12 4 12 C3.54625 10.865625 3.0925 9.73125 2.625 8.5625 C1.42904194 4.95278308 1.42904194 4.95278308 -1 4 C-0.67 2.68 -0.34 1.36 0 0 Z " fill="#EDE3F8" transform="translate(423,403)"/>
<path d="M0 0 C0.99 0 1.98 0 3 0 C3.06058594 0.65226562 3.12117188 1.30453125 3.18359375 1.9765625 C3.63519991 6.68716217 4.14195039 11.34201638 5 16 C4.67 15.34 4.34 14.68 4 14 C3.34 14 2.68 14 2 14 C1.34 9.38 0.68 4.76 0 0 Z " fill="#583F95" transform="translate(272,430)"/>
<path d="M0 0 C4.06036357 1.92333011 6.37347975 4.40069448 9 8 C6 8 6 8 4.3125 6.625 C3 5 3 5 3 3 C1.35 3 -0.3 3 -2 3 C-2 2.34 -2 1.68 -2 1 C-1.34 0.67 -0.68 0.34 0 0 Z " fill="#5C4499" transform="translate(386,302)"/>
<path d="M0 0 C0.99 0.33 1.98 0.66 3 1 C-4.4 7 -4.4 7 -8 7 C-8 6.01 -8 5.02 -8 4 C-6.865625 3.525625 -5.73125 3.05125 -4.5625 2.5625 C-1.24259834 1.36377917 -1.24259834 1.36377917 0 0 Z " fill="#EEE5F7" transform="translate(328,297)"/>
<path d="M0 0 C5.94 1.485 5.94 1.485 12 3 C11.34 3.66 10.68 4.32 10 5 C6.24438133 4.67342446 3.26397448 3.8830622 0 2 C0 1.34 0 0.68 0 0 Z " fill="#604999" transform="translate(318,488)"/>
<path d="M0 0 C2.93200474 2.85276137 5.64315404 5.65079784 8 9 C7.01 9.495 7.01 9.495 6 10 C2.99203895 7.99469263 1.27992362 6.41312965 0 3 C0 2.01 0 1.02 0 0 Z " fill="#593F9A" transform="translate(283,461)"/>
<path d="M0 0 C1 3 1 3 0.1796875 4.75390625 C-2.50173811 8.47097229 -4.36392345 10.80786603 -9 12 C-7.43930994 8.16921531 -4.93185886 5.85856238 -2 3 C-1.34 2.01 -0.68 1.02 0 0 Z " fill="#E3D9F0" transform="translate(400,453)"/>
<path d="M0 0 C0.66 0 1.32 0 2 0 C2.45375 0.969375 2.9075 1.93875 3.375 2.9375 C4.65786221 6.07079582 4.65786221 6.07079582 7 7 C6.67 8.32 6.34 9.64 6 11 C3.02753198 8.45217026 1.58464712 5.54659117 0 2 C0 1.34 0 0.68 0 0 Z " fill="#584297" transform="translate(306,443)"/>
<path d="M0 0 C2.31 0.33 4.62 0.66 7 1 C7.33 1.99 7.66 2.98 8 4 C5.1875 4.6875 5.1875 4.6875 2 5 C0.125 3.5625 0.125 3.5625 -1 2 C-0.67 1.34 -0.34 0.68 0 0 Z " fill="#583AA1" transform="translate(327,353)"/>
<path d="M0 0 C2.9375 1.625 2.9375 1.625 6 4 C6.875 7.25 6.875 7.25 7 10 C4.06799526 7.14723863 1.35684596 4.34920216 -1 1 C-0.67 0.67 -0.34 0.34 0 0 Z " fill="#F6ECFD" transform="translate(390,302)"/>
<path d="M0 0 C5 2 5 2 10 4 C7 6 7 6 4.8125 5.625 C4.214375 5.41875 3.61625 5.2125 3 5 C3 4.34 3 3.68 3 3 C2.01 2.67 1.02 2.34 0 2 C0 1.34 0 0.68 0 0 Z " fill="#F0E7F9" transform="translate(320,462)"/>
<path d="M0 0 C-1.24546405 3.73639216 -2.63404953 4.18756513 -6 6 C-6 5.01 -6 4.02 -6 3 C-6.99 2.67 -7.98 2.34 -9 2 C-2.25 0 -2.25 0 0 0 Z " fill="#583E9D" transform="translate(396,458)"/>
<path d="M0 0 C3.63 1.65 7.26 3.3 11 5 C6.58830306 6.10292424 5.04131206 5.88594563 1 4 C0.67 2.68 0.34 1.36 0 0 Z " fill="#533C8E" transform="translate(379,404)"/>
<path d="M0 0 C0.33 1.32 0.66 2.64 1 4 C-4.75 2.25 -4.75 2.25 -7 0 C-4.3333581 -1.33332095 -2.83319697 -0.67102033 0 0 Z " fill="#E8DFF5" transform="translate(387,404)"/>
<path d="M0 0 C0.66 0.33 1.32 0.66 2 1 C1.01 3.31 0.02 5.62 -1 8 C-2.32 6.68 -3.64 5.36 -5 4 C-4.34 4 -3.68 4 -3 4 C-3 3.34 -3 2.68 -3 2 C-2.01 2 -1.02 2 0 2 C0 1.34 0 0.68 0 0 Z " fill="#5E3FA9" transform="translate(323,345)"/>
<path d="M0 0 C0.99 0.33 1.98 0.66 3 1 C2.01 4.96 1.02 8.92 0 13 C-0.33 13 -0.66 13 -1 13 C-1.0272415 11.58344207 -1.04650467 10.16672955 -1.0625 8.75 C-1.07410156 7.96109375 -1.08570313 7.1721875 -1.09765625 6.359375 C-1.00385306 4.09308998 -0.63241063 2.1711105 0 0 Z " fill="#553D91" transform="translate(282,309)"/>
<path d="M0 0 C0.99 0 1.98 0 3 0 C3.33 1.98 3.66 3.96 4 6 C4.99 6 5.98 6 7 6 C6.34 7.32 5.68 8.64 5 10 C3.35 6.7 1.7 3.4 0 0 Z " fill="#EFE3F9" transform="translate(285,351)"/>
<path d="M0 0 C2.475 0.99 2.475 0.99 5 2 C4.67 3.32 4.34 4.64 4 6 C2.68 5.34 1.36 4.68 0 4 C0 2.68 0 1.36 0 0 Z " fill="#4B3292" transform="translate(316,343)"/>
<path d="M0 0 C1.12588014 0.95729916 2.2506715 1.91587895 3.375 2.875 C4.00148438 3.40867187 4.62796875 3.94234375 5.2734375 4.4921875 C6.55836651 5.61432007 7.79371975 6.79371975 9 8 C6.07003641 7.37215066 3.48244217 6.71202908 1 5 C0.25 2.375 0.25 2.375 0 0 Z " fill="#60469B" transform="translate(291,470)"/>
<path d="M0 0 C2.4375 0.75 2.4375 0.75 5 2 C5.9375 4 5.9375 4 6 6 C5.34 6.66 4.68 7.32 4 8 C2.68 5.36 1.36 2.72 0 0 Z " fill="#EFE7F8" transform="translate(281,456)"/>
<path d="M0 0 C0.66 0 1.32 0 2 0 C1.60196439 2.88575819 1.20990931 3.82189513 -1.0625 5.75 C-1.701875 6.1625 -2.34125 6.575 -3 7 C-3.33 6.01 -3.66 5.02 -4 4 C-2.66666667 2.66666667 -1.33333333 1.33333333 0 0 Z " fill="#5D439E" transform="translate(301,284)"/>
<path d="M0 0 C1.8871875 0.0309375 1.8871875 0.0309375 3.8125 0.0625 C0.30711443 2.02551592 -3.32101728 3.02152388 -7.1875 4.0625 C-7.1875 3.0725 -7.1875 2.0825 -7.1875 1.0625 C-4.43671116 0.14557039 -2.82801087 -0.04636083 0 0 Z " fill="#5F4793" transform="translate(324.1875,273.9375)"/>
<path d="M0 0 C-0.66 0 -1.32 0 -2 0 C-2.33 0.99 -2.66 1.98 -3 3 C-5.31 3 -7.62 3 -10 3 C-6.84439813 -0.15560187 -4.30999015 -1.43666338 0 0 Z " fill="#543B90" transform="translate(407,486)"/>
<path d="M0 0 C3.71866485 1.23955495 5.32283886 3.18554854 8 6 C8.66 6.66 9.32 7.32 10 8 C5.17965738 7.58682778 3.09007389 5.61980085 0 2 C0 1.34 0 0.68 0 0 Z " fill="#4F3786" transform="translate(312,453)"/>
<path d="M0 0 C0.66 0 1.32 0 2 0 C1.01 2.97 0.02 5.94 -1 9 C-2.10107995 5.69676014 -1.86709271 4.29495231 -1 1 C-0.67 0.67 -0.34 0.34 0 0 Z " fill="#533C93" transform="translate(402,444)"/>
<path d="M0 0 C2.64 0.66 5.28 1.32 8 2 C5.42786866 3.61949011 4.32330841 4.04408751 1.25 3.625 C0.5075 3.41875 -0.235 3.2125 -1 3 C-0.67 2.01 -0.34 1.02 0 0 Z " fill="#F5EDFB" transform="translate(378,375)"/>
<path d="M0 0 C-0.99 1.485 -0.99 1.485 -2 3 C-5.625 3.1875 -5.625 3.1875 -9 3 C-7.14340032 -0.71319936 -3.69365381 -0.09982848 0 0 Z " fill="#512DB7" transform="translate(353,297)"/>
<path d="M0 0 C2.97 0.495 2.97 0.495 6 1 C6 1.66 6 2.32 6 3 C3.36 3 0.72 3 -2 3 C-1.34 2.67 -0.68 2.34 0 2 C0 1.34 0 0.68 0 0 Z " fill="#593E9A" transform="translate(330,492)"/>
<path d="M0 0 C1.485 0.99 1.485 0.99 3 2 C3 2.99 3 3.98 3 5 C3.66 5 4.32 5 5 5 C4.34 6.32 3.68 7.64 3 9 C0 2.25 0 2.25 0 0 Z " fill="#573D9C" transform="translate(418,293)"/>
<path d="M0 0 C2.64 1.65 5.28 3.3 8 5 C7.67 5.66 7.34 6.32 7 7 C4.13302508 5.71480435 2.02392288 4.42870746 0 2 C0 1.34 0 0.68 0 0 Z " fill="#ECE1FA" transform="translate(400,281)"/>
<path d="M0 0 C2 1 2 1 4 4 C4.125 6.6875 4.125 6.6875 4 9 C3.01 8.34 2.02 7.68 1 7 C0.3125 3.375 0.3125 3.375 0 0 Z " fill="#523797" transform="translate(431,415)"/>
<path d="M0 0 C0.99 0.33 1.98 0.66 3 1 C2.67 2.65 2.34 4.3 2 6 C0.35 5.67 -1.3 5.34 -3 5 C-2.01 3.35 -1.02 1.7 0 0 Z " fill="#6142A8" transform="translate(355,362)"/>
<path d="M0 0 C0.66 0.33 1.32 0.66 2 1 C2 1.99 2 2.98 2 4 C1.34 4 0.68 4 0 4 C0 5.32 0 6.64 0 8 C-0.66 8 -1.32 8 -2 8 C-1.125 2.25 -1.125 2.25 0 0 Z " fill="#5D459A" transform="translate(313,315)"/>
</svg>
